<svg version="1.2" baseProfile="tiny-ps" xmlns="http://www.w3.org/2000/svg" viewBox="0 0 1528 683" width="1528" height="683">
	<title>Aston_Martin-svg</title>
	<defs>
		<linearGradient id="grd1" gradientUnits="userSpaceOnUse"  x1="629.16" y1="-26.036" x2="898.21" y2="230.206">
			<stop offset="0" stop-color="#339966"  />
			<stop offset="1" stop-color="#004f32"  />
			<stop offset="1" stop-color="#004f32"  />
		</linearGradient>
	</defs>
	<style>
		tspan { white-space:pre }
		.shp0 { fill: #000000 } 
		.shp1 { fill: url(#grd1) } 
		.shp2 { fill: #ffffff } 
	</style>
	<path id="Layer" fill-rule="evenodd" class="shp0" d="M1523.58 31.78C1523.54 31.87 1512.28 50.6 1512.28 50.6C1507.68 58.13 1502.4 60.93 1491.3 61.63C1491.14 61.66 1485.99 62.18 1482.39 68.45L1470.87 88.67C1468.45 93.31 1462.73 104.19 1443.2 106.83C1442.87 106.89 1437.17 107.51 1434.03 113.5C1433.98 113.56 1419.81 138.51 1419.81 138.51C1415.67 146.54 1409.87 149.51 1399.33 152.76C1399.32 152.76 1141.13 228.54 1141.13 228.54C1132.36 231.13 1128.78 241.03 1128.78 241.03C1122.61 256.96 1114.6 270.07 1074.29 282.23C1074.26 282.26 863.05 339.86 863.05 339.86C860.46 340.71 836.28 348.07 818.05 330.49C818.05 330.49 768.65 283.35 768.52 283.26C768.5 283.2 766.45 281.12 763.66 281.12L763.65 281.12C760.86 281.12 758.8 283.21 758.79 283.26C758.66 283.35 709.25 330.49 709.25 330.49C691.03 348.07 666.83 340.71 664.25 339.86C664.25 339.86 453.03 282.25 453.01 282.23C412.71 270.07 404.7 256.96 398.53 241.03C398.53 241.03 394.94 231.13 386.17 228.54C386.17 228.54 127.99 152.76 127.96 152.76C117.43 149.51 111.62 146.54 107.49 138.51C107.49 138.51 93.32 113.57 93.27 113.5C90.12 107.51 84.43 106.88 84.1 106.83C64.57 104.19 58.84 93.31 56.42 88.67L44.91 68.45C41.31 62.18 36.16 61.65 36 61.63C24.89 60.93 19.61 58.13 15.02 50.6C15.02 50.6 3.76 31.87 3.71 31.78C-1.82 21.56 0.09 14.24 2.64 9.89C8.02 0.99 17.86 0.31 21.81 0.18L639.19 0.18C656.66 0.18 670.79 5.47 681.23 15.95C688.74 23.42 693.9 33.17 696.57 44.92C696.62 45.19 697.34 47.64 702.62 47.64L824.66 47.64C829.94 47.64 830.67 45.19 830.71 44.92C833.38 33.17 838.55 23.42 846.05 15.95C856.49 5.47 870.62 0.18 888.1 0.18L1505.47 0.18C1509.42 0.31 1519.26 0.99 1524.64 9.89C1527.2 14.24 1529.11 21.56 1523.58 31.78ZM650.1 255.61C666.53 259.87 683.34 263.13 700.53 265.48L731.44 154.02L710.12 154.02C702.59 166.77 672.58 217.58 650.1 255.61ZM674.55 154.02C665.27 163.7 626.82 203.78 594.86 237.07C609.94 243.37 625.37 248.74 641.17 253.19L699.75 154.02L674.55 154.02ZM500.85 182.56C513.5 192.26 526.54 201.17 539.94 209.26L617.14 154.02L561.85 154.02C556.67 156.45 529.83 168.99 500.85 182.56ZM540.77 154.02L467.18 154.02C474.66 161.02 492.29 175.83 492.97 176.38L540.77 154.02ZM548.38 214.24C560.67 221.25 573.24 227.64 586.11 233.32L662.16 154.02L632.49 154.02C622.92 160.86 584.88 188.1 548.38 214.24ZM355.58 11.66C365.33 18.95 370.46 28.18 370.8 28.8C370.8 28.8 378.44 42.61 383.07 50.22L686.35 50.22C685.8 49.04 685.35 47.41 685.35 47.41C683.16 37.84 679.05 30 673.12 24.07C664.9 15.85 653.49 11.66 639.19 11.66C639.19 11.66 501.11 11.66 355.58 11.66ZM448.85 115.52L448.85 101.38L421.72 105.04C425.37 109.56 429.19 114.11 433.18 118.73L448.85 115.52ZM440.05 126.44C442.89 129.57 445.82 132.73 448.84 135.86L448.84 124.62C446.54 125.09 443.57 125.69 440.05 126.44ZM448.84 92.38L448.84 80.15L404.93 83.06C408.19 87.58 411.63 92.19 415.26 96.9L448.84 92.38ZM448.84 70.88L448.84 59.14L388.66 59.14C391.72 63.95 395.05 68.99 398.67 74.2L448.84 70.88ZM372.64 50.22C368.87 43.86 365.64 38.09 362.94 33.06C362.94 33.06 350.66 11.69 329.84 11.69L22.13 11.66C14.64 11.78 11.8 15 11.61 19.18C11.54 20.82 12.09 23.14 13.8 26.28C14.61 27.63 24.88 44.69 24.85 44.66C27.32 48.7 28.98 49.63 36.83 50.22L372.64 50.22ZM102.61 93.86L388.33 74.88C384.62 69.4 381.23 64.13 378.1 59.13L52.4 59.13C55.5 63.01 61.81 75.19 66.6 83.34C68.2 86.4 70.69 91.1 78.53 93.8C85.08 95.44 98.11 94.41 102.61 93.86ZM131.32 134.96L405.08 98.24C401.31 93.31 397.79 88.47 394.46 83.76C394.46 83.76 101.95 103.24 100.19 103.4C101.34 104.72 102.44 106.22 103.37 108.01L117.05 132.09C117.65 132.91 120.92 136.35 131.32 134.96ZM235.07 159.44L423.2 120.76C419.08 115.93 415.16 111.13 411.4 106.41L136.45 143.3C146.28 146.17 169.33 152.91 197.69 161.28C208.02 163.98 228.08 160.88 235.07 159.44ZM321.61 186.33L447.66 147.45C441.42 141.12 435.53 134.8 429.92 128.51C373.16 140.16 236.86 168.18 236.88 168.15C236.46 168.25 232.48 169.06 226.91 169.83C247.79 175.98 269.91 182.48 290.91 188.63C304.14 192.12 321.33 186.42 321.61 186.33ZM415.8 212.49L483.97 180.59C473.59 172.09 463.88 163.37 454.84 154.6C430.18 162.21 324.25 194.88 324.37 194.83C324.1 194.93 321.68 195.74 318 196.56C356.59 207.9 386.53 216.7 389.21 217.49C398.15 219.91 411.3 214.76 415.8 212.49ZM468.31 260.5L532.04 214.92C518.24 206.42 504.79 197.03 491.76 186.81C455.81 203.66 419.65 220.53 419.73 220.51C419.24 220.77 411.77 224.51 402.74 226.22C407.12 231.19 409.06 236.38 409.38 237.24C413.17 246.96 417.16 256.98 443.84 267.04C454.9 270.52 468.11 260.71 468.31 260.5ZM542.43 278.83L579.52 240.18C566.16 234.14 553.13 227.37 540.4 219.94C505.18 245.13 473.58 267.74 473.63 267.7C473.31 267.95 469.47 270.84 463.83 273.29L520.31 288.68C528.78 290.7 539.11 282.32 542.43 278.83ZM616.36 295.18L636.44 261.16C619.96 256.4 603.9 250.67 588.22 244C566.27 266.88 548.89 285.02 548.89 285.02C548.56 285.35 544.19 289.88 537.88 293.47L598.67 310.06C605.72 311.17 613.91 299.58 616.36 295.18ZM687.81 311.22L698.1 274.17C680.11 271.71 662.52 268.18 645.34 263.64C633.1 284.38 624.08 299.63 624.11 299.6C623.36 300.99 618.98 308.53 612.49 313.83L665.62 328.3C670.37 329.39 674.37 328.91 677.81 326.83C685.4 322.19 687.83 311.33 687.81 311.22ZM747.31 278.32C733.7 277.86 720.27 276.87 707.08 275.34L696.56 313.22C696.25 314.51 694.2 322.85 688.32 329.48C692.71 328.3 697.26 326.1 701.3 322.16C701.3 322.16 736.41 288.68 747.31 278.32ZM759.18 269.61C759.18 269.61 759.17 269.61 759.17 269.61L759.17 269.61L759.18 269.61ZM759.17 269.61L759.17 154.02L740.72 154.02L709.5 266.59C725.73 268.43 742.27 269.48 759.17 269.61ZM841.93 47.41C841.93 47.41 841.55 49.12 840.93 50.23L1144.21 50.23C1149.09 42.16 1153.19 34.95 1156.48 28.8C1156.82 28.18 1161.94 18.96 1171.69 11.66C1026.18 11.66 888.08 11.66 888.08 11.66C873.8 11.66 862.37 15.85 854.15 24.07C848.22 30 844.09 37.84 841.93 47.41ZM1094.08 118.72C1098.09 114.12 1101.93 109.55 1105.59 105.02L1078.35 101.37L1078.35 115.51C1081.66 116.18 1087.07 117.28 1094.08 118.72ZM1078.35 124.63L1078.35 135.96C1081.4 132.8 1084.38 129.6 1087.24 126.44L1078.35 124.63ZM1112.03 96.9C1115.66 92.19 1119.13 87.58 1122.39 83.06L1078.35 80.15L1078.35 92.38L1112.03 96.9ZM1128.64 74.19C1132.23 68.99 1135.59 63.94 1138.65 59.13L1078.35 59.13L1078.35 70.88L1128.64 74.19ZM987.31 209.28C1000.71 201.17 1013.75 192.26 1026.42 182.56L965.42 154.02L910.11 154.02C926.85 165.99 957.87 188.2 987.31 209.28ZM894.78 154.02L865.11 154.02C880.15 169.67 913.5 204.47 941.2 233.32C954.03 227.64 966.63 221.26 978.88 214.24L894.78 154.02ZM1034.31 176.38C1034.89 175.9 1052.59 161.48 1060.09 154.02L986.5 154.02C998.96 159.86 1016.41 167.99 1034.31 176.38ZM827.52 154.02L886.11 253.18C901.92 248.71 917.36 243.36 932.41 237.09L852.72 154.02L827.52 154.02ZM795.83 154.02L826.74 265.48C843.91 263.13 860.74 259.87 877.17 255.59L817.14 154.02L795.83 154.02ZM817.78 266.59L786.57 154.02L768.11 154.02L768.11 269.64C784.98 269.48 801.54 268.45 817.78 266.59ZM838.96 329.49C833.12 322.88 831.02 314.56 830.72 313.24L820.2 275.29C807 276.84 793.57 277.84 779.95 278.32C789.66 287.54 818.27 314.84 818.27 314.84C828.46 324.81 830.89 327.19 838.96 329.49ZM914.77 313.82C908.27 308.55 903.95 301 903.21 299.71L881.87 263.61C864.7 268.15 847.13 271.67 829.15 274.17L839.44 311.28C839.58 311.9 842.04 322.3 849.44 326.83C852.89 328.91 856.9 329.39 861.65 328.3L914.77 313.82ZM989.38 293.47C983.07 289.9 978.72 285.38 978.37 285.04L939.04 244C923.39 250.71 907.28 256.39 890.81 261.14L910.97 295.26C913.35 299.58 921.55 311.17 928.61 310.06L989.38 293.47ZM1063.44 273.29C1057.83 270.86 1054.01 268 1053.74 267.77L986.87 219.94C974.15 227.4 961.12 234.14 947.78 240.19C968.62 261.96 984.86 278.84 984.86 278.84C988.16 282.32 998.5 290.71 1006.96 288.68L1017.01 285.95C1017.01 285.95 1048.59 277.33 1063.44 273.29ZM1117.92 237.19C1118.27 236.19 1120.22 231.12 1124.53 226.22C1115.51 224.54 1108.08 220.78 1107.68 220.58L1035.53 186.81C1022.47 197.04 1009.03 206.4 995.22 214.92C1029.18 239.21 1058.99 260.54 1059.05 260.59C1059.16 260.71 1072.31 270.48 1083.36 267.04C1110.14 256.98 1114.12 246.94 1117.92 237.19ZM1209.26 196.56C1205.63 195.74 1203.25 194.97 1203 194.88L1072.44 154.6C1063.4 163.39 1053.69 172.09 1043.3 180.61C1077.89 196.8 1111.58 212.56 1111.58 212.56C1115.96 214.76 1129.13 219.92 1138.07 217.49L1209.26 196.56ZM1236.42 188.61L1300.34 169.84C1294.78 169.07 1290.83 168.25 1290.4 168.19L1097.37 128.51C1091.78 134.83 1085.84 141.12 1079.61 147.46L1205.52 186.29C1205.53 186.29 1205.56 186.31 1205.56 186.31L1205.76 186.38C1205.94 186.42 1223.2 192.15 1236.42 188.61ZM1329.67 161.25L1390.83 143.29L1115.91 106.4C1112.17 111.15 1108.22 115.94 1104.1 120.78C1163.44 132.98 1292.21 159.44 1292.21 159.44C1299.21 160.89 1319.36 163.98 1329.67 161.25ZM1427.08 103.39C1425.33 103.24 1424.11 103.1 1423.68 103.05L1132.88 83.76C1129.54 88.46 1125.98 93.33 1122.23 98.24L1395.98 134.96C1406.45 136.35 1409.66 132.85 1410.24 132.08C1412.59 127.94 1423.9 108.03 1423.83 108.12C1424.79 106.31 1425.88 104.76 1427.08 103.39ZM1472.39 62.76C1473.17 61.4 1474 60.22 1474.85 59.12L1149.22 59.12C1146.1 64.12 1142.67 69.4 1138.98 74.87L1424.67 93.85C1429.18 94.4 1442.21 95.44 1448.75 93.8C1456.6 91.1 1459.06 86.4 1460.67 83.35L1472.39 62.76ZM1515.69 19.2C1515.69 17.36 1515.06 16.34 1514.79 15.84C1512.58 12.18 1508.38 11.82 1505.15 11.68L1197.46 11.7C1176.34 11.7 1164.44 32.9 1164.35 33.08C1161.64 38.1 1158.42 43.87 1154.66 50.23C1154.66 50.23 1490.48 50.18 1490.53 50.18C1499.05 49.64 1500.33 48.1 1502.4 44.69C1502.4 44.69 1513.31 26.53 1513.47 26.28C1515.16 23.14 1515.68 20.82 1515.69 19.2Z" />
	<path id="Layer" class="shp1" d="M457.91 145.09C457.87 145.05 457.83 145 457.78 144.96L457.78 59.18L1069.44 59.18L1069.44 145C1069.42 145.05 1069.39 145.05 1069.37 145.07L457.91 145.09L457.91 145.09L457.91 145.09Z" />
	<path id="Layer" fill-rule="evenodd" class="shp2" d="M498.43 72.88L523.6 131.35L513.83 131.35L513.71 131.03C510.71 122.51 507.92 115.37 505.18 109.15C504.54 109.15 485.61 109.15 484.97 109.15C484.8 109.6 484.42 110.54 484.42 110.54C481.77 117.08 479.05 123.89 476.93 131.01L476.82 131.35L469.74 131.35L495.87 72.88L498.43 72.88ZM486.94 104.69C488.28 104.69 502.13 104.69 503.51 104.69C502.95 103.39 495.96 87.33 495.16 85.42C494.34 87.33 487.48 103.4 486.94 104.69ZM526.4 127.18L528.13 119.27L529.69 119.27L529.83 119.49C533.44 125.4 537.15 127.8 542.75 127.8C548.85 127.8 553.65 122.73 553.65 116.31C553.65 109.38 548.03 107.15 542.04 104.83C535.41 102.2 527.88 99.27 527.88 89.18C527.88 79.27 535.25 72.89 546.69 72.89C550.33 72.89 555.45 73.96 558.79 76.96L559.06 77.21L556.62 84.59L555.06 84.59L554.94 84.27C553.19 79.86 549.75 77.45 545.19 77.45C539.49 77.45 535.33 81.26 535.33 86.54C535.33 93.49 541.14 95.73 547.26 98.17C554.15 100.89 561.27 103.67 561.27 113.08C561.27 124.43 552.68 132.34 540.42 132.34C536.67 132.34 529.71 130.77 526.62 127.41L526.4 127.18ZM607.93 74.09L607.93 80.13L607.35 80.06C602.13 79.42 596.55 79.09 590.71 79.09C590.71 80.11 590.71 131.53 590.71 131.53L582.45 131.53C582.45 131.53 582.45 80.09 582.45 79.06C574.67 79.09 569.9 79.54 564.96 80.06L564.41 80.11L564.41 74.09L607.93 74.09ZM668.76 101.49C668.76 119.94 655.93 132.35 636.88 132.35C618.45 132.35 606.04 120.47 606.04 102.74C606.04 85.18 618.8 72.88 637.04 72.88C652.82 72.88 668.76 81.71 668.76 101.49ZM652.31 122.14C657.46 116.62 659.7 108.83 659.7 103.33C659.7 102.94 659.68 102.54 659.65 102.17C659.65 95.42 658.79 89.78 654.55 84.38C650.71 79.51 644.46 76.6 637.85 76.6C623.84 76.6 615.11 86.99 615.11 103.74C615.11 118.85 623.75 128.62 637.1 128.62C643.16 128.62 648.25 126.44 652.31 122.14ZM726.55 74.09L726.55 131.34L723.29 131.34L718.89 126.21C718.89 126.21 683.8 87.38 683.5 87.03C683.45 87.03 683.42 87.03 683.38 87.03C683.38 88.05 683.38 131.34 683.38 131.34L677.74 131.34L677.74 74.09L681.7 74.09C681.7 74.09 720.52 116.12 720.82 116.46C720.85 116.46 720.87 116.46 720.91 116.46C720.91 115.46 720.91 74.09 720.91 74.09L726.55 74.09ZM818.58 74.09L818.58 74.08L819.03 74.08L819.08 74.55C821.61 98.5 823.76 116.88 825.75 130.77L825.82 131.34L817.05 131.34L817 130.88C816.04 119.59 814.31 99.89 813 90.02C803.74 106.57 796.99 119.13 792.19 130.13L792.05 130.45L790.5 130.45L785.85 120.86C781.73 112.44 770.96 91.99 769.98 90.12C769.71 92.38 769.07 98.01 769.07 98.01C767.55 110.76 766.12 122.78 766.12 130.85L766.12 131.35L759.18 131.35L759.29 130.77C761.45 117.48 766.37 83.02 767.19 74.56L767.23 74.09L770.14 74.09L770.28 74.36C776.84 87.38 784.55 102.39 793.1 116.67C793.9 115.23 802.67 99.23 802.67 99.23L816.55 74.09L818.58 74.09ZM857.85 72.88L882.98 131.35L873.2 131.35L873.08 131.03C870.21 122.83 867.35 115.51 864.57 109.15C863.92 109.15 845 109.15 844.35 109.15C844.19 109.58 843.86 110.4 843.86 110.4C841.21 116.99 838.47 123.83 836.35 131.01L836.25 131.35L829.13 131.35L855.28 72.88L857.85 72.88ZM862.92 104.69C862.36 103.39 855.38 87.33 854.56 85.42C853.75 87.33 846.88 103.4 846.35 104.69C847.7 104.69 861.54 104.69 862.92 104.69ZM908.14 103.05C909.12 104.26 930.81 131.35 930.8 131.35L920 131.35L914.67 124.04C914.67 124.04 904.94 111.45 904.97 111.47C904.97 111.47 898.82 104.25 898.55 103.91C898.2 103.91 896.8 103.91 896.15 103.91C896.15 104.9 896.15 131.35 896.15 131.35L887.91 131.35L887.91 74.09L905.86 74.09C918.51 74.09 924.65 78.38 924.65 87.13C924.65 95.09 918.48 100.97 908.14 103.05ZM896.16 99.78C898.24 99.93 902.58 100.05 906.16 99.33C912.53 98.05 916.31 93.86 916.31 88.1C916.31 82.49 913.4 79.15 907.68 78.22C904.82 77.76 899.55 77.99 896.16 78.15C896.16 79.06 896.16 98.87 896.16 99.78ZM972.84 74.09L972.84 80.13L972.26 80.06C967.04 79.42 961.45 79.09 955.63 79.09C955.63 80.11 955.63 131.53 955.63 131.53L947.32 131.53C947.32 131.53 947.32 80.09 947.32 79.06C939.57 79.09 934.81 79.54 929.87 80.06L929.31 80.11L929.31 74.09L972.84 74.09ZM979.63 74.09L987.43 74.09L987.43 131.35L979.63 131.35L979.63 74.09ZM1042.74 74.09L1048.38 74.09L1048.38 131.34L1045.16 131.34L1040.77 126.21C1040.77 126.21 1005.62 87.38 1005.33 87.03C1005.29 87.03 1005.27 87.03 1005.23 87.03C1005.23 88.05 1005.23 131.34 1005.23 131.34L999.59 131.34L999.59 74.09L1003.55 74.09C1003.55 74.09 1042.37 116.12 1042.68 116.46C1042.7 116.46 1042.71 116.46 1042.74 116.46C1042.74 115.46 1042.74 74.09 1042.74 74.09Z" />
	<path id="Layer" fill-rule="evenodd" class="shp0" d="M285.8 680.37C282.7 680.37 279.91 680.69 277.11 680.87C272.38 667.28 266.48 651.6 259.92 636.72L218.36 636.72C212.63 651.1 206.72 665.49 202.15 680.87C199.85 680.69 198.05 680.37 196.08 680.37C193.95 680.37 192.14 680.69 190.35 680.87L241.43 566.62L245.2 566.62L294.31 680.87C291.22 680.69 288.6 680.37 285.8 680.37ZM1326.23 680.87C1324.43 678.59 1321.15 674.66 1317.73 670.89L1246.98 592.72L1245.37 592.72L1245.37 680.87C1243.73 680.69 1242.26 680.37 1240.76 680.37C1239.13 680.37 1237.64 680.69 1236.18 680.87L1236.18 569.05L1242.58 569.05L1320.33 653.24L1321.99 653.24L1321.99 569.05C1323.45 569.19 1324.91 569.53 1326.58 569.53C1328.06 569.53 1329.54 569.19 1331.16 569.05L1331.16 680.87L1326.23 680.87ZM1198.6 569.05C1200.9 569.2 1203.36 569.53 1205.8 569.53C1208.1 569.53 1210.4 569.19 1213 569.05L1213 680.87C1210.39 680.69 1208.08 680.37 1205.8 680.37C1203.36 680.37 1200.89 680.69 1198.6 680.87L1198.6 569.05ZM1138.9 680.69C1136.47 680.69 1134.01 681.03 1131.72 681.19L1131.72 576.89C1115.21 576.89 1105.21 577.87 1095.85 578.85C1096.04 577.21 1096.35 575.57 1096.35 573.95C1096.35 572.3 1096.04 570.85 1095.85 569.04L1180.34 569.04C1180.18 570.84 1179.87 572.3 1179.87 573.95C1179.87 575.57 1180.17 577.21 1180.34 578.85C1172.17 577.87 1160.69 576.89 1146.15 576.89L1146.15 681.19L1146.14 681.19C1143.51 681.03 1141.21 680.69 1138.9 680.69ZM1048.21 569.05C1073.45 569.05 1084.57 577.37 1084.57 593.89C1084.57 612.84 1067.55 622.03 1051.01 624.95L1084.74 667.63L1092.59 676.78L1095.69 680.87C1092.27 680.69 1089.31 680.37 1086.2 680.37C1083.1 680.37 1079.83 680.69 1076.84 680.87C1073.25 675.8 1069.99 671.18 1066.52 666.62L1047.23 641.63L1034.12 626.29L1027.92 626.29L1027.92 680.87C1025.28 680.69 1022.99 680.37 1020.7 680.37C1018.24 680.37 1015.78 680.69 1013.49 680.87L1013.49 569.05L1048.21 569.05ZM1049.04 619.22C1061.02 616.79 1069.99 608.59 1069.99 595.85C1069.99 584.56 1064.24 577.2 1051.98 575.23C1045.94 574.28 1034.77 574.75 1027.93 575.09L1027.93 620.04L1027.92 620.04C1030.2 620.2 1040.67 620.85 1049.04 619.22ZM993.62 680.37C990.52 680.37 987.73 680.69 984.98 680.87C980.21 667.28 974.3 651.6 967.75 636.72L926.2 636.72C920.45 651.1 914.54 665.49 909.98 680.87C907.68 680.69 905.89 680.37 903.92 680.37C901.81 680.37 899.98 680.69 898.2 680.87L949.26 566.62L953.03 566.62L1002.16 680.87C999.02 680.69 996.44 680.37 993.62 680.37ZM929.29 629.85L965.31 629.85L947.14 588.02L929.29 629.85ZM890.68 680.87C887.72 680.69 885.43 680.37 882.99 680.37C880.35 680.37 877.75 680.69 875.31 680.87C872.54 647.99 869.2 612.69 866.92 596.52C847.94 630.36 833.85 656.48 824.03 679.07L822.24 679.07L813.24 660.57C802.74 639.03 791.28 617.77 780.16 596.51C776.56 628.37 772.13 660.72 772.13 680.86C770.03 680.68 768.2 680.37 766.42 680.37C764.29 680.37 762.48 680.68 760.52 680.86C764.76 654.55 774.58 586.2 776.23 569.04L780.49 569.04C793.59 595.06 809.31 625.76 826.8 654.71C842.4 626.72 857.46 598.32 873.98 569.04L877.43 569.04L877.43 569.05C881.69 609.41 886.29 649.66 890.68 680.87ZM687.98 680.87C686.2 678.59 682.91 674.66 679.49 670.89L608.74 592.72L607.12 592.72L607.12 680.87C605.48 680.69 604 680.37 602.53 680.37C600.9 680.37 599.44 680.69 597.95 680.87L597.95 569.05L604.35 569.05L682.1 653.24L683.76 653.24L683.76 569.05C685.22 569.19 686.69 569.53 688.32 569.53C689.78 569.53 691.27 569.19 692.93 569.05L692.93 680.87L687.98 680.87ZM518.69 566.62C549.48 566.62 580.73 583.25 580.73 622.49C580.73 658.93 554.88 682.84 518.39 682.84C482.19 682.85 458.1 659.95 458.1 624.95C458.1 589.14 484.77 566.62 518.69 566.62ZM520.31 571.99C491.52 571.99 474.16 593.74 474.16 626.9C474.16 660.13 494.45 677.41 518.86 677.41C553.41 677.41 565.85 641.79 564.69 623.82C564.69 610.27 562.9 598.79 554.38 587.85C546.21 577.55 533.44 571.99 520.31 571.99ZM418.59 680.69C416.13 680.69 413.66 681.03 411.4 681.19L411.4 576.89C394.86 576.89 384.85 577.87 375.54 578.85C375.7 577.21 376.02 575.57 376.02 573.95C376.02 572.3 375.69 570.85 375.54 569.04L460.01 569.04C459.83 570.84 459.52 572.3 459.52 573.95C459.52 575.57 459.83 577.21 460.01 578.85C451.81 577.87 440.38 576.89 425.8 576.89L425.8 681.19C423.17 681.03 420.89 680.69 418.59 680.69ZM305.78 658.79C312.15 669.26 319.51 675.8 332.32 675.8C345.56 675.8 355.05 664.82 355.05 651.92C355.05 621.52 303.81 634.95 303.81 597.98C303.81 576.89 320.51 566.63 340.17 566.63C348 566.63 357.53 569.05 363.55 574.44C361.59 578.69 360.46 583.25 359.15 587.85L357.53 587.85C354.08 579.01 346.88 573.62 337.23 573.62C325.92 573.62 316.6 581.16 316.6 592.73C316.6 622.84 368.16 610.73 368.16 645.56C368.16 668.95 349.95 682.85 327.7 682.85C319.7 682.85 306.6 679.43 301.04 673.36C302.65 668.61 303.47 663.69 304.14 658.79L305.78 658.79L305.78 658.79ZM221.48 629.85L257.48 629.85L239.3 588.02L221.48 629.85Z" />
</svg>